<?xml version="1.0" encoding="UTF-8" standalone="no"?>
<!DOCTYPE svg PUBLIC "-//W3C//DTD SVG 1.1//EN" "http://www.w3.org/Graphics/SVG/1.1/DTD/svg11.dtd">
<svg width="100%" height="100%" viewBox="0 0 50 30" version="1.1" xmlns="http://www.w3.org/2000/svg" xmlns:xlink="http://www.w3.org/1999/xlink" xml:space="preserve" xmlns:serif="http://www.serif.com/" style="fill-rule:evenodd;clip-rule:evenodd;stroke-linejoin:round;stroke-miterlimit:2;">
    <g transform="matrix(1,0,0,1,-792.178,-15.0387)">
        <g transform="matrix(3,0,0,2.385,760,0)">
            <g transform="matrix(0.333333,0,0,0.419287,8.70933,-2.26556)">
                <g id="massage-envy-ME-logo.svg" transform="matrix(0.0137426,0,0,0.0137426,31,30)">
                    <g transform="matrix(1,0,0,1,-1091.5,-695.5)">
                        <clipPath id="_clip1">
                            <rect x="0" y="0" width="2183" height="1391"/>
                        </clipPath>
                        <g clip-path="url(#_clip1)">
                            <g transform="matrix(4.16667,0,0,4.16667,0.00196625,-0.990059)">
                                <g>
                                    <path d="M322.805,167.405C324.701,210.675 326.603,253.945 328.489,297.216C328.802,304.373 329.142,311.531 329.297,318.693C329.422,324.459 326.959,327.033 321.188,327.054C301.191,327.127 281.194,327.128 261.199,327.056C255.195,327.035 253.001,324.411 252.762,317.832C251.148,273.379 249.513,228.926 247.863,184.474C247.802,182.817 247.809,181.079 247.307,179.532C245.584,174.217 239.834,173.218 235.238,177.612C229.337,183.252 223.682,189.147 217.924,194.936C205.351,207.578 192.838,220.281 180.19,232.848C168.757,244.21 160.739,244.231 149.453,232.967C131.524,215.077 113.678,197.104 95.801,179.162C93.176,176.527 90.542,173.644 86.319,175.291C81.973,176.985 81.751,180.873 81.608,184.868C80.034,229.161 78.408,273.451 76.756,317.741C76.483,325.061 74.296,327.073 66.874,327.081C47.877,327.101 28.881,327.101 9.885,327.082C2.241,327.074 -0.305,324.355 0.028,316.793C2.966,250.383 5.906,183.974 8.822,117.564C10.225,85.61 11.574,53.654 12.968,21.701C13.077,19.206 13.349,16.718 13.542,14.227C13.957,8.879 16.615,5.016 21.664,3.306C26.556,1.65 30.735,3.281 34.318,6.985C48.108,21.233 61.971,35.409 75.811,49.61C101.979,76.457 128.128,103.324 154.332,130.135C162.796,138.797 166.908,138.674 175.472,129.89C215.025,89.329 254.613,48.802 294.09,8.165C298.146,3.99 302.441,1.261 308.214,3.43C314.127,5.652 315.84,10.561 316.1,16.608C318.265,66.876 320.59,117.138 322.867,167.402C322.847,167.403 322.825,167.404 322.805,167.405Z" style="fill:rgb(119,117,118);"/>
                                    <path d="M366.422,119.401C366.421,85.071 366.41,50.741 366.427,16.411C366.434,4.388 370.625,0.243 382.696,0.242C424.359,0.237 466.021,0.235 507.685,0.243C519.388,0.246 523.676,4.515 523.703,16.175C523.724,25.174 523.771,34.174 523.68,43.173C523.583,52.792 519.123,57.249 509.521,57.27C485.857,57.32 462.192,57.275 438.528,57.297C429.679,57.305 428.301,58.69 428.282,67.368C428.27,73.367 428.238,79.367 428.297,85.366C428.357,91.706 430.328,93.735 436.708,93.756C455.206,93.814 473.705,93.774 492.203,93.782C501.827,93.787 503.763,95.761 503.771,105.573C503.781,115.572 503.802,125.571 503.76,135.57C503.729,143.054 501.054,145.771 493.468,145.795C474.804,145.854 456.139,145.804 437.474,145.825C429.786,145.834 428.314,147.279 428.284,154.783C428.256,161.615 428.251,168.448 428.289,175.281C428.328,182.399 430.069,184.211 437.129,184.217C460.627,184.24 484.124,184.183 507.622,184.191C519.709,184.195 523.685,188.242 523.706,200.459C523.719,208.125 523.742,215.792 523.695,223.457C523.632,233.951 519.372,238.34 508.774,238.39C486.61,238.496 464.446,238.436 442.281,238.435C422.283,238.435 402.285,238.486 382.287,238.391C370.33,238.336 366.436,234.334 366.429,222.391C366.409,188.061 366.422,153.731 366.422,119.401Z" style="fill:rgb(119,117,118);"/>
                                    <path d="M450.8,272.912C466.29,272.912 481.781,272.866 497.271,272.932C504.438,272.963 511.087,271.388 517.216,267.561C521.655,264.79 523.63,265.866 523.71,271.08C523.809,277.573 523.877,284.077 523.654,290.565C522.924,311.849 507.345,326.998 485.988,327.069C455.507,327.17 425.025,327.178 394.544,327.044C386.502,327.008 379.046,328.383 372.21,332.846C368.809,335.068 366.474,334.025 366.505,330.189C366.58,320.719 365.409,311.175 367.407,301.79C370.995,284.935 385.584,273.056 402.828,272.949C418.818,272.849 434.81,272.927 450.8,272.927L450.8,272.912Z" style="fill:rgb(112,96,162);"/>
                                </g>
                            </g>
                        </g>
                    </g>
                </g>
                <g transform="matrix(0.368477,0,0,0.324355,-5.97244,-23.4087)">
                    <path d="M33.282,221.39C33.028,221.39 32.856,221.33 32.764,221.21C32.672,221.09 32.627,220.878 32.627,220.574L32.627,205.166C32.627,204.862 32.672,204.65 32.764,204.53C32.856,204.41 33.028,204.35 33.282,204.35L40.993,204.35C41.246,204.35 41.422,204.41 41.521,204.53C41.619,204.65 41.669,204.862 41.669,205.166L41.669,206.342C41.669,206.646 41.619,206.858 41.521,206.978C41.422,207.098 41.246,207.158 40.993,207.158L35.267,207.158L35.267,211.358L40.063,211.358C40.303,211.358 40.472,211.418 40.57,211.538C40.669,211.658 40.718,211.87 40.718,212.174L40.718,213.35C40.718,213.654 40.669,213.866 40.57,213.986C40.472,214.106 40.303,214.166 40.063,214.166L35.267,214.166L35.267,218.582L41.183,218.582C41.436,218.582 41.612,218.642 41.711,218.762C41.81,218.882 41.859,219.094 41.859,219.398L41.859,220.574C41.859,220.878 41.81,221.09 41.711,221.21C41.612,221.33 41.436,221.39 41.183,221.39L33.282,221.39Z" style="fill:rgb(119,117,118);fill-rule:nonzero;"/>
                    <path d="M47.774,221.75C46.281,221.75 45.197,221.438 44.521,220.814C43.845,220.19 43.507,219.198 43.507,217.838C43.507,216.494 43.841,215.526 44.51,214.934C45.179,214.342 46.281,214.046 47.816,214.046C48.126,214.046 48.436,214.058 48.746,214.082C49.056,214.106 49.302,214.134 49.485,214.166L49.485,213.206C49.485,212.406 49.359,211.846 49.105,211.526C48.852,211.206 48.408,211.046 47.774,211.046C46.887,211.046 46.267,211.446 45.915,212.246C45.774,212.55 45.605,212.702 45.408,212.702C45.309,212.702 45.19,212.662 45.049,212.582L44.288,212.174C43.993,212.03 43.845,211.838 43.845,211.598C43.845,211.454 43.88,211.302 43.95,211.142C44.669,209.446 45.943,208.598 47.774,208.598C49.267,208.598 50.33,208.998 50.964,209.798C51.598,210.598 51.915,211.774 51.915,213.326L51.915,219.758C51.915,220.174 51.869,220.47 51.778,220.646C51.686,220.822 51.507,220.982 51.239,221.126C50.464,221.542 49.309,221.75 47.774,221.75ZM45.936,217.838C45.936,218.398 46.074,218.806 46.348,219.062C46.623,219.318 47.049,219.446 47.626,219.446C48.359,219.446 48.922,219.382 49.316,219.254C49.387,219.222 49.433,219.186 49.454,219.146C49.475,219.106 49.485,219.03 49.485,218.918L49.485,216.326C49.373,216.326 49.116,216.31 48.714,216.278C48.313,216.246 47.964,216.23 47.669,216.23C47.077,216.23 46.64,216.362 46.359,216.626C46.077,216.89 45.936,217.294 45.936,217.838Z" style="fill:rgb(119,117,118);fill-rule:nonzero;"/>
                    <path d="M58.232,221.75C57.105,221.75 56.197,221.518 55.506,221.054C54.816,220.59 54.316,219.862 54.006,218.87C53.95,218.678 53.922,218.542 53.922,218.462C53.922,218.174 54.07,217.982 54.366,217.886L55.528,217.502C55.654,217.454 55.767,217.43 55.866,217.43C55.964,217.43 56.049,217.47 56.119,217.55C56.189,217.63 56.26,217.766 56.33,217.958C56.471,218.422 56.7,218.758 57.017,218.966C57.334,219.174 57.739,219.278 58.232,219.278C59.443,219.278 60.049,218.806 60.049,217.862C60.049,217.334 59.897,216.962 59.594,216.746C59.292,216.53 58.753,216.374 57.978,216.278C57.189,216.182 56.517,216.022 55.961,215.798C55.404,215.574 54.954,215.19 54.609,214.646C54.263,214.102 54.091,213.358 54.091,212.414C54.091,211.262 54.454,210.342 55.179,209.654C55.904,208.966 56.908,208.622 58.189,208.622C59.26,208.622 60.112,208.838 60.746,209.27C61.379,209.702 61.858,210.334 62.182,211.166C62.253,211.374 62.288,211.542 62.288,211.67C62.288,211.942 62.147,212.134 61.865,212.246L60.915,212.654C60.76,212.718 60.633,212.75 60.534,212.75C60.436,212.75 60.355,212.718 60.291,212.654C60.228,212.59 60.161,212.47 60.091,212.294C59.936,211.91 59.707,211.61 59.404,211.394C59.101,211.178 58.696,211.07 58.189,211.07C57.64,211.07 57.225,211.19 56.943,211.43C56.661,211.67 56.52,211.998 56.52,212.414C56.52,212.958 56.668,213.326 56.964,213.518C57.26,213.71 57.788,213.854 58.549,213.95C59.816,214.094 60.788,214.454 61.464,215.03C62.14,215.606 62.478,216.534 62.478,217.814C62.478,219.014 62.112,219.97 61.379,220.682C60.647,221.394 59.598,221.75 58.232,221.75Z" style="fill:rgb(119,117,118);fill-rule:nonzero;"/>
                    <path d="M69.576,221.39C68.52,221.438 67.693,221.35 67.094,221.126C66.496,220.902 66.052,220.446 65.763,219.758C65.474,219.07 65.33,218.038 65.33,216.662L65.33,211.526L64.189,211.526C63.964,211.526 63.809,211.47 63.725,211.358C63.64,211.246 63.598,211.054 63.598,210.782L63.598,209.678C63.598,209.406 63.64,209.218 63.725,209.114C63.809,209.01 63.964,208.958 64.189,208.958L65.33,208.958L65.33,206.798C65.33,206.526 65.372,206.338 65.457,206.234C65.541,206.13 65.696,206.078 65.922,206.078L67.168,206.078C67.408,206.078 67.569,206.13 67.654,206.234C67.738,206.338 67.781,206.526 67.781,206.798L67.781,208.958L69.598,208.958C69.823,208.958 69.978,209.01 70.062,209.114C70.147,209.218 70.189,209.406 70.189,209.678L70.189,210.782C70.189,211.054 70.147,211.246 70.062,211.358C69.978,211.47 69.823,211.526 69.598,211.526L67.781,211.526L67.781,216.518C67.781,217.238 67.837,217.754 67.95,218.066C68.062,218.378 68.235,218.574 68.467,218.654C68.7,218.734 69.069,218.766 69.576,218.75C69.802,218.734 69.96,218.774 70.052,218.87C70.143,218.966 70.189,219.134 70.189,219.374L70.189,220.622C70.189,220.894 70.143,221.086 70.052,221.198C69.96,221.31 69.802,221.374 69.576,221.39Z" style="fill:rgb(119,117,118);fill-rule:nonzero;"/>
                    <path d="M77.668,221.39C77.414,221.39 77.242,221.33 77.15,221.21C77.059,221.09 77.013,220.878 77.013,220.574L77.013,205.166C77.013,204.862 77.059,204.65 77.15,204.53C77.242,204.41 77.414,204.35 77.668,204.35L78.999,204.35C79.238,204.35 79.407,204.41 79.506,204.53C79.604,204.65 79.654,204.862 79.654,205.166L79.654,211.358L85.083,211.358L85.083,205.166C85.083,204.862 85.129,204.65 85.22,204.53C85.312,204.41 85.485,204.35 85.738,204.35L87.048,204.35C87.301,204.35 87.477,204.41 87.576,204.53C87.675,204.65 87.724,204.862 87.724,205.166L87.724,220.574C87.724,220.878 87.675,221.09 87.576,221.21C87.477,221.33 87.301,221.39 87.048,221.39L85.738,221.39C85.485,221.39 85.312,221.33 85.22,221.21C85.129,221.09 85.083,220.878 85.083,220.574L85.083,214.166L79.654,214.166L79.654,220.574C79.654,220.878 79.604,221.09 79.506,221.21C79.407,221.33 79.238,221.39 78.999,221.39L77.668,221.39Z" style="fill:rgb(119,117,118);fill-rule:nonzero;"/>
                    <path d="M94.674,221.75C93.266,221.75 92.178,221.326 91.41,220.478C90.643,219.63 90.259,218.454 90.259,216.95L90.259,213.398C90.259,211.894 90.643,210.718 91.41,209.87C92.178,209.022 93.266,208.598 94.674,208.598C96.111,208.598 97.213,209.022 97.981,209.87C98.748,210.718 99.132,211.894 99.132,213.398L99.132,216.95C99.132,218.454 98.748,219.63 97.981,220.478C97.213,221.326 96.111,221.75 94.674,221.75ZM92.71,216.95C92.71,217.67 92.882,218.23 93.227,218.63C93.572,219.03 94.055,219.23 94.674,219.23C95.322,219.23 95.819,219.03 96.164,218.63C96.509,218.23 96.681,217.67 96.681,216.95L96.681,213.398C96.681,212.662 96.509,212.098 96.164,211.706C95.819,211.314 95.322,211.118 94.674,211.118C94.055,211.118 93.572,211.314 93.227,211.706C92.882,212.098 92.71,212.662 92.71,213.398L92.71,216.95Z" style="fill:rgb(119,117,118);fill-rule:nonzero;"/>
                    <path d="M102.069,221.39C101.885,221.39 101.762,221.334 101.699,221.222C101.636,221.11 101.604,220.918 101.604,220.646L101.604,204.374C101.604,204.102 101.636,203.91 101.699,203.798C101.762,203.686 101.885,203.63 102.069,203.63L103.59,203.63C103.759,203.63 103.878,203.686 103.949,203.798C104.019,203.91 104.054,204.102 104.054,204.374L104.054,220.646C104.054,220.918 104.019,221.11 103.949,221.222C103.878,221.334 103.759,221.39 103.59,221.39L102.069,221.39Z" style="fill:rgb(119,117,118);fill-rule:nonzero;"/>
                    <path d="M107.392,221.39C107.209,221.39 107.086,221.334 107.023,221.222C106.959,221.11 106.928,220.918 106.928,220.646L106.928,204.374C106.928,204.102 106.959,203.91 107.023,203.798C107.086,203.686 107.209,203.63 107.392,203.63L108.913,203.63C109.082,203.63 109.202,203.686 109.273,203.798C109.343,203.91 109.378,204.102 109.378,204.374L109.378,220.646C109.378,220.918 109.343,221.11 109.273,221.222C109.202,221.334 109.082,221.39 108.913,221.39L107.392,221.39Z" style="fill:rgb(119,117,118);fill-rule:nonzero;"/>
                    <path d="M116.371,227.054C114.456,227.054 113.125,226.278 112.378,224.726C112.28,224.55 112.23,224.374 112.23,224.198C112.23,223.942 112.364,223.734 112.632,223.574L113.519,223.046C113.688,222.95 113.829,222.902 113.942,222.902C114.111,222.902 114.28,223.062 114.449,223.382C114.801,224.166 115.427,224.558 116.329,224.558C116.977,224.558 117.448,224.354 117.744,223.946C118.04,223.538 118.188,222.902 118.188,222.038L118.188,220.814C117.54,221.038 116.843,221.15 116.096,221.15C114.758,221.15 113.758,220.734 113.096,219.902C112.435,219.07 112.104,217.878 112.104,216.326L112.104,209.678C112.104,209.406 112.146,209.218 112.23,209.114C112.315,209.01 112.47,208.958 112.695,208.958L113.942,208.958C114.181,208.958 114.343,209.01 114.427,209.114C114.512,209.218 114.554,209.406 114.554,209.678L114.554,216.23C114.554,217.046 114.702,217.646 114.998,218.03C115.294,218.414 115.772,218.606 116.434,218.606C117.082,218.606 117.66,218.494 118.167,218.27L118.167,209.678C118.167,209.406 118.209,209.218 118.294,209.114C118.378,209.01 118.533,208.958 118.758,208.958L120.026,208.958C120.251,208.958 120.406,209.01 120.491,209.114C120.575,209.218 120.617,209.406 120.617,209.678L120.617,221.798C120.617,223.446 120.276,224.734 119.593,225.662C118.91,226.59 117.836,227.054 116.371,227.054Z" style="fill:rgb(119,117,118);fill-rule:nonzero;"/>
                    <path d="M125.941,221.414C125.702,221.414 125.519,221.366 125.392,221.27C125.265,221.174 125.174,220.998 125.117,220.742L122.603,209.822C122.561,209.63 122.54,209.478 122.54,209.366C122.54,209.206 122.586,209.098 122.677,209.042C122.769,208.986 122.92,208.958 123.131,208.958L124.167,208.958C124.547,208.958 124.807,209.006 124.948,209.102C125.089,209.198 125.181,209.398 125.223,209.702L126.237,215.078C126.321,215.51 126.42,216.494 126.533,218.03L126.66,218.03C126.758,216.846 126.885,215.854 127.04,215.054L128.181,209.798C128.251,209.478 128.346,209.27 128.466,209.174C128.586,209.078 128.828,209.03 129.195,209.03L129.892,209.03C130.244,209.03 130.48,209.074 130.6,209.162C130.719,209.25 130.814,209.454 130.885,209.774L132.047,215.03C132.202,215.798 132.328,216.798 132.427,218.03L132.533,218.03C132.603,216.942 132.709,215.95 132.849,215.054L133.864,209.702C133.92,209.398 134.018,209.198 134.159,209.102C134.3,209.006 134.561,208.958 134.941,208.958L135.849,208.958C136.075,208.958 136.23,208.986 136.314,209.042C136.399,209.098 136.441,209.198 136.441,209.342C136.441,209.47 136.42,209.63 136.378,209.822L133.864,220.742C133.807,220.998 133.716,221.174 133.589,221.27C133.462,221.366 133.279,221.414 133.04,221.414L131.962,221.414C131.723,221.414 131.533,221.366 131.392,221.27C131.251,221.174 131.152,220.998 131.096,220.742L129.85,214.598C129.709,213.814 129.596,212.99 129.512,212.126L129.427,212.126C129.244,213.39 129.117,214.214 129.047,214.598L127.8,220.742C127.744,220.998 127.652,221.174 127.526,221.27C127.399,221.366 127.216,221.414 126.976,221.414L125.941,221.414Z" style="fill:rgb(119,117,118);fill-rule:nonzero;"/>
                    <path d="M142.23,221.75C140.821,221.75 139.733,221.326 138.966,220.478C138.198,219.63 137.814,218.454 137.814,216.95L137.814,213.398C137.814,211.894 138.198,210.718 138.966,209.87C139.733,209.022 140.821,208.598 142.23,208.598C143.666,208.598 144.768,209.022 145.536,209.87C146.303,210.718 146.687,211.894 146.687,213.398L146.687,216.95C146.687,218.454 146.303,219.63 145.536,220.478C144.768,221.326 143.666,221.75 142.23,221.75ZM140.265,216.95C140.265,217.67 140.437,218.23 140.782,218.63C141.127,219.03 141.61,219.23 142.23,219.23C142.877,219.23 143.374,219.03 143.719,218.63C144.064,218.23 144.237,217.67 144.237,216.95L144.237,213.398C144.237,212.662 144.064,212.098 143.719,211.706C143.374,211.314 142.877,211.118 142.23,211.118C141.61,211.118 141.127,211.314 140.782,211.706C140.437,212.098 140.265,212.662 140.265,213.398L140.265,216.95Z" style="fill:rgb(119,117,118);fill-rule:nonzero;"/>
                    <path d="M153.173,221.75C151.764,221.75 150.676,221.326 149.909,220.478C149.141,219.63 148.758,218.454 148.758,216.95L148.758,213.398C148.758,211.894 149.141,210.718 149.909,209.87C150.676,209.022 151.764,208.598 153.173,208.598C154.609,208.598 155.712,209.022 156.479,209.87C157.247,210.718 157.631,211.894 157.631,213.398L157.631,216.95C157.631,218.454 157.247,219.63 156.479,220.478C155.712,221.326 154.609,221.75 153.173,221.75ZM151.208,216.95C151.208,217.67 151.381,218.23 151.726,218.63C152.071,219.03 152.553,219.23 153.173,219.23C153.821,219.23 154.317,219.03 154.662,218.63C155.007,218.23 155.18,217.67 155.18,216.95L155.18,213.398C155.18,212.662 155.007,212.098 154.662,211.706C154.317,211.314 153.821,211.118 153.173,211.118C152.553,211.118 152.071,211.314 151.726,211.706C151.381,212.098 151.208,212.662 151.208,213.398L151.208,216.95Z" style="fill:rgb(119,117,118);fill-rule:nonzero;"/>
                    <path d="M164.159,221.75C161.187,221.75 159.701,220.054 159.701,216.662L159.701,213.422C159.701,211.854 160.042,210.658 160.726,209.834C161.409,209.01 162.44,208.598 163.821,208.598C164.468,208.598 165.151,208.734 165.87,209.006L165.87,204.374C165.87,204.102 165.916,203.91 166.007,203.798C166.099,203.686 166.257,203.63 166.482,203.63L167.729,203.63C167.954,203.63 168.109,203.682 168.194,203.786C168.278,203.89 168.32,204.086 168.32,204.374L168.32,219.662C168.32,220.046 168.278,220.318 168.194,220.478C168.109,220.638 167.919,220.806 167.623,220.982C167.229,221.19 166.729,221.37 166.123,221.522C165.518,221.674 164.863,221.75 164.159,221.75ZM162.152,216.59C162.152,217.486 162.314,218.146 162.637,218.57C162.961,218.994 163.497,219.206 164.243,219.206C164.525,219.206 164.806,219.182 165.088,219.134C165.37,219.086 165.588,219.014 165.743,218.918C165.799,218.886 165.835,218.846 165.849,218.798C165.863,218.75 165.87,218.702 165.87,218.654L165.87,211.55C165.687,211.438 165.43,211.342 165.099,211.262C164.768,211.182 164.447,211.142 164.137,211.142C162.814,211.142 162.152,211.926 162.152,213.494L162.152,216.59Z" style="fill:rgb(119,117,118);fill-rule:nonzero;"/>
                </g>
            </g>
        </g>
    </g>
</svg>
