<?xml version="1.0" encoding="UTF-8" standalone="no"?>
<!DOCTYPE svg PUBLIC "-//W3C//DTD SVG 1.1//EN" "http://www.w3.org/Graphics/SVG/1.1/DTD/svg11.dtd">
<svg width="100%" height="100%" viewBox="0 0 10 16" version="1.1" xmlns="http://www.w3.org/2000/svg" xmlns:xlink="http://www.w3.org/1999/xlink" xml:space="preserve" xmlns:serif="http://www.serif.com/" style="fill-rule:evenodd;clip-rule:evenodd;stroke-linejoin:round;stroke-miterlimit:2;">
    <g transform="matrix(1,0,0,1,-258.855,-288.631)">
        <g transform="matrix(0.977778,0,0,0.919117,0.355545,29.4391)">
            <g id="chevron-right.svg" transform="matrix(1.17046,0,0,1.24517,269.074,290.858)">
                <g transform="matrix(1,0,0,1,-8,-8)">
                    <path d="M4.646,1.646C4.74,1.552 4.867,1.499 5,1.499C5.133,1.499 5.26,1.552 5.354,1.646L11.354,7.646C11.448,7.74 11.501,7.867 11.501,8C11.501,8.133 11.448,8.26 11.354,8.354L5.354,14.354C5.26,14.448 5.133,14.501 5,14.501C4.725,14.501 4.499,14.275 4.499,14C4.499,13.867 4.552,13.74 4.646,13.646L10.293,8L4.646,2.354C4.552,2.26 4.499,2.133 4.499,2C4.499,1.867 4.552,1.74 4.646,1.646Z" style="fill:white;stroke:white;stroke-width:0.5px;"/>
                </g>
            </g>
        </g>
    </g>
</svg>
